HIERARCHY
ROOT Hips
{
	OFFSET 0.000000 0.000000 0.000000
	CHANNELS 6 Xposition Yposition Zposition Yrotation Xrotation Zrotation
	JOINT Chest
	{
		OFFSET 0.000000 -0.009281 11.569106
		CHANNELS 3 Yrotation Xrotation Zrotation
		JOINT Chest2
		{
			OFFSET -0.000000 0.016865 9.269641
			CHANNELS 3 Yrotation Xrotation Zrotation
			JOINT Chest3
			{
				OFFSET -0.000000 0.000001 8.374491
				CHANNELS 3 Yrotation Xrotation Zrotation
				JOINT Chest4
				{
					OFFSET -0.000000 0.000001 8.374493
					CHANNELS 3 Yrotation Xrotation Zrotation
					JOINT Neck
					{
						OFFSET -0.000000 0.000002 12.152554
						CHANNELS 3 Yrotation Xrotation Zrotation
						JOINT Head
						{
							OFFSET -0.000000 0.040101 7.802319
							CHANNELS 3 Yrotation Xrotation Zrotation
							End Site
							{
								OFFSET -0.000000 0.020947 14.853096
							}
						}
					}
					JOINT RightCollar
					{
						OFFSET 2.894404 0.000001 6.791374
						CHANNELS 3 Yrotation Xrotation Zrotation
						JOINT RightShoulder
						{
							OFFSET 13.574684 0.000001 0.000000
							CHANNELS 3 Yrotation Xrotation Zrotation
							JOINT RightElbow
							{
								OFFSET 23.923903 0.000002 0.000000
								CHANNELS 3 Yrotation Xrotation Zrotation
								JOINT RightWrist
								{
									OFFSET 19.846718 0.012767 0.000000
									CHANNELS 3 Yrotation Xrotation Zrotation
									End Site
									{
										OFFSET 14.973145 0.000001 0.000000
									}
								}
							}
						}
					}
					JOINT LeftCollar
					{
						OFFSET -2.894404 0.000001 6.791374
						CHANNELS 3 Yrotation Xrotation Zrotation
						JOINT LeftShoulder
						{
							OFFSET -13.574684 -0.000001 0.000000
							CHANNELS 3 Yrotation Xrotation Zrotation
							JOINT LeftElbow
							{
								OFFSET -23.923903 -0.000002 0.000000
								CHANNELS 3 Yrotation Xrotation Zrotation
								JOINT LeftWrist
								{
									OFFSET -19.846718 0.012763 0.000000
									CHANNELS 3 Yrotation Xrotation Zrotation
									End Site
									{
										OFFSET -14.973145 -0.000001 0.000000
									}
								}
							}
						}
					}
				}
			}
		}
	}
	JOINT RightHip
	{
		OFFSET 9.469263 0.004643 0.045487
		CHANNELS 3 Yrotation Xrotation Zrotation
		JOINT RightKnee
		{
			OFFSET 0.000000 0.002661 -40.478676
			CHANNELS 3 Yrotation Xrotation Zrotation
			JOINT RightAnkle
			{
				OFFSET 0.000000 0.049106 -35.224068
				CHANNELS 3 Yrotation Xrotation Zrotation
				JOINT RightToe
				{
					OFFSET -0.000001 12.539529 -6.151390
					CHANNELS 3 Yrotation Xrotation Zrotation
					End Site
					{
						OFFSET -0.000001 5.044994 -1.291870
					}
				}
			}
		}
	}
	JOINT LeftHip
	{
		OFFSET -9.469263 0.004641 0.045487
		CHANNELS 3 Yrotation Xrotation Zrotation
		JOINT LeftKnee
		{
			OFFSET 0.000000 0.002661 -40.478676
			CHANNELS 3 Yrotation Xrotation Zrotation
			JOINT LeftAnkle
			{
				OFFSET 0.000000 0.049106 -35.224068
				CHANNELS 3 Yrotation Xrotation Zrotation
				JOINT LeftToe
				{
					OFFSET -0.000001 12.539529 -6.151390
					CHANNELS 3 Yrotation Xrotation Zrotation
					End Site
					{
						OFFSET -0.000001 5.044994 -1.291870
					}
				}
			}
		}
	}
}
MOTION
Frames: 12
Frame Time: 0.016667
16.316189 5.839782 83.193970 -6.227879 -4.813413 -109.567593 -14.622655 -6.306900 18.863021 -6.164541 -3.398631 8.125518 -6.164536 -3.398632 8.125517 -4.577778 -2.631779 6.058775 7.637340 -15.529296 6.123857 16.429274 6.005894 14.149694 10.118860 -5.923446 -13.236800 65.115909 -29.242321 73.544007 -8.960689 -32.285433 47.820347 -56.081133 20.753170 34.138027 11.049831 -10.272628 -28.447422 -81.362170 49.022856 -86.248787 -13.850769 50.056124 -27.826966 -16.189731 37.699393 -13.866750 5.022197 -8.127532 -8.169045 2.074126 -4.756926 -2.011300 -0.078245 5.713159 1.962661 -0.039812 0.150325 -0.018756 7.143811 -7.411307 -0.399371 -0.569465 -1.923135 -1.513429 -1.443944 2.531910 3.942423 0.051793 -0.196715 0.048756 
16.305695 5.873076 83.200699 -6.104803 -4.838013 -109.568986 -14.676369 -6.373191 18.871061 -6.188609 -3.429900 8.125847 -6.188604 -3.429901 8.125850 -4.595381 -2.655562 6.058542 7.630412 -15.459167 6.139724 16.434197 6.132788 14.189365 10.318089 -5.965319 -13.026295 65.067961 -29.290146 72.841386 -8.715165 -32.817922 47.236359 -55.774410 20.329959 33.992038 10.881431 -10.357655 -28.474871 -80.894192 49.035639 -85.379946 -13.004316 50.281448 -26.710816 -15.799763 37.739684 -13.980550 5.074819 -7.991725 -8.070422 2.048078 -4.776855 -2.070603 -0.044323 5.710784 1.961548 -0.030805 0.141412 -0.020395 7.204526 -7.333773 -0.356280 -0.606012 -1.837298 -1.475185 -1.462173 2.499531 3.896519 0.091607 -0.202341 0.050235 
16.301716 5.913500 83.208168 -5.987854 -4.846174 -109.572470 -14.717938 -6.409296 18.893068 -6.208884 -3.448675 8.132663 -6.208884 -3.448676 8.132663 -4.610281 -2.669991 6.063333 7.630318 -15.429672 6.147185 16.441766 6.185459 14.208482 10.523798 -6.003218 -12.823842 65.088370 -29.354309 72.054193 -8.359494 -33.338423 46.582867 -55.524715 20.042026 33.823281 10.881094 -10.614343 -28.485213 -80.552102 49.021777 -84.601332 -12.232010 50.432454 -25.688645 -15.381948 37.769099 -14.180161 5.091673 -7.842513 -7.963873 2.044837 -4.833919 -2.141298 -0.012156 5.732188 1.937093 -0.026930 0.131392 -0.026854 7.243982 -7.257185 -0.264354 -0.640669 -1.754279 -1.478580 -1.482058 2.460574 3.869713 0.126981 -0.199461 0.053391 
16.301764 5.955511 83.217422 -5.886091 -4.850315 -109.552519 -14.757105 -6.460264 18.909047 -6.226559 -3.474429 8.137020 -6.226559 -3.474431 8.137022 -4.623153 -2.689594 6.066214 7.630956 -15.412448 6.157667 16.449592 6.214880 14.231208 10.645646 -6.007683 -12.659856 65.327501 -29.452817 71.186622 -7.883753 -33.919771 45.919041 -55.205530 19.810419 33.596905 10.806030 -10.751047 -28.488769 -79.970006 48.964885 -83.656683 -11.321888 50.669933 -24.515318 -15.177830 37.657415 -14.448089 5.096696 -7.703527 -7.861210 2.044603 -4.904510 -2.242248 0.019124 5.757400 1.949479 -0.018606 0.129198 -0.029740 7.267144 -7.173217 -0.188012 -0.657801 -1.705839 -1.502663 -1.506633 2.432694 3.825353 0.153759 -0.190381 0.055488 
16.306036 5.998034 83.226723 -5.789914 -4.850762 -109.495521 -14.791118 -6.529729 18.888547 -6.239511 -3.506885 8.124844 -6.239508 -3.506886 8.124846 -4.632470 -2.713992 6.056645 7.624976 -15.395339 6.186802 16.451603 6.241699 14.286139 10.715963 -6.077969 -12.472585 65.515195 -29.534612 70.441448 -7.354918 -34.433009 45.264087 -54.837820 19.513239 33.371293 10.652620 -10.811853 -28.452866 -79.353131 48.897273 -82.749142 -10.371581 50.942723 -23.260873 -14.986046 37.526521 -14.683016 5.109527 -7.572200 -7.783825 2.033403 -4.972414 -2.349748 0.044848 5.784526 1.950693 -0.003916 0.130745 -0.030080 7.281530 -7.068746 -0.164146 -0.662161 -1.694677 -1.511887 -1.530989 2.421683 3.765900 0.170709 -0.181381 0.054018 
16.311867 6.038064 83.233231 -5.684189 -4.844021 -109.421878 -14.823332 -6.616501 18.846201 -6.250176 -3.545390 8.101689 -6.250172 -3.545390 8.101691 -4.640052 -2.742779 6.038789 7.610311 -15.366011 6.224151 16.442540 6.290956 14.355505 10.768335 -6.152673 -12.265268 65.564434 -29.622097 69.859926 -6.992967 -34.920718 44.653000 -54.466148 19.135472 33.104240 10.463571 -10.835964 -28.427240 -78.823607 48.875423 -81.935161 -9.561931 51.191233 -22.140891 -14.676156 37.513363 -14.853201 5.122027 -7.426775 -7.729844 2.021257 -5.051278 -2.449100 0.059808 5.827921 1.940096 0.015981 0.126965 -0.031054 7.285545 -6.947915 -0.155174 -0.663068 -1.693967 -1.527463 -1.542062 2.419477 3.796530 0.178663 -0.177440 0.054187 
16.320677 6.082596 83.237411 -5.580316 -4.833592 -109.351561 -14.857856 -6.717415 18.807298 -6.261434 -3.590356 8.078590 -6.261429 -3.590358 8.078590 -4.647985 -2.776427 6.020889 7.589397 -15.324214 6.260475 16.423805 6.364499 14.423153 10.842366 -6.139342 -12.050794 65.517196 -29.718314 69.368405 -6.708906 -35.362263 44.016710 -54.014430 18.633588 32.838986 10.287501 -10.821041 -28.413985 -78.470848 48.857501 -81.264812 -8.799496 51.308309 -21.116822 -14.264783 37.631982 -15.041574 5.119256 -7.281168 -7.677447 2.024837 -5.135272 -2.514068 0.059365 5.877635 1.901545 0.037016 0.120105 -0.033853 7.292007 -6.828326 -0.140598 -0.669513 -1.691300 -1.569599 -1.549020 2.417853 3.805081 0.181084 -0.176597 0.054684 
16.329313 6.127069 83.242065 -5.480132 -4.821196 -109.300430 -14.884034 -6.790919 18.797160 -6.271589 -3.624609 8.068777 -6.271584 -3.624608 8.068781 -4.655175 -2.802157 6.013083 7.581516 -15.298994 6.277055 16.419440 6.409023 14.455725 10.985203 -6.175758 -11.878928 65.413302 -29.754917 68.954605 -6.409458 -35.756566 43.384781 -53.548359 18.084804 32.582868 10.241523 -10.918612 -28.405237 -78.383770 48.790582 -80.831689 -8.050113 51.305362 -20.142610 -13.858789 37.726625 -15.298027 5.106977 -7.140395 -7.599080 2.038542 -5.214665 -2.566803 0.045978 5.920710 1.844668 0.057666 0.115243 -0.035847 7.288448 -6.719148 -0.090631 -0.668896 -1.682992 -1.624926 -1.558839 2.412104 3.768577 0.183210 -0.173863 0.057010 
16.342707 6.166126 83.249496 -5.398872 -4.811779 -109.248295 -14.886449 -6.848228 18.778077 -6.272162 -3.649833 8.055955 -6.272159 -3.649832 8.055955 -4.655319 -2.820957 6.003177 7.570492 -15.297062 6.294325 16.405363 6.411267 14.484234 11.094935 -6.294322 -11.629896 65.363701 -29.693609 68.549527 -5.891604 -36.031768 42.670166 -53.073807 17.661515 32.356816 10.193022 -11.101272 -28.384236 -78.299199 48.701930 -80.469887 -7.236384 51.286757 -19.131862 -13.512137 37.740781 -15.558167 5.104180 -7.033120 -7.536044 2.036791 -5.268636 -2.618142 0.033855 5.950371 1.785354 0.076625 0.114476 -0.035823 7.291660 -6.639503 -0.025183 -0.681993 -1.659397 -1.687561 -1.563164 2.391114 3.723313 0.182958 -0.163687 0.058282 
16.364454 6.192041 83.259140 -5.325213 -4.807582 -109.183265 -14.901349 -6.911867 18.765743 -6.277090 -3.677551 8.046668 -6.277089 -3.677551 8.046668 -4.658681 -2.841716 5.995869 7.576148 -15.272455 6.303928 16.423548 6.453417 14.508464 11.182609 -6.339707 -11.428123 65.392641 -29.689996 68.105831 -5.132250 -36.134525 41.859928 -52.619429 17.431461 32.094277 10.057773 -11.107889 -28.376245 -77.786224 48.594204 -79.787176 -6.444058 51.389705 -18.088037 -13.109956 37.761777 -15.728414 5.117411 -6.968524 -7.537557 2.023209 -5.271464 -2.632330 0.024165 5.954875 1.750665 0.090243 0.120752 -0.033574 7.304575 -6.583169 0.022992 -0.700701 -1.618275 -1.729945 -1.558200 2.362218 3.688610 0.174312 -0.151027 0.058421 
16.391563 6.208788 83.269623 -5.246275 -4.810379 -109.113317 -14.949460 -6.980719 18.761474 -6.293967 -3.709754 8.040847 -6.293969 -3.709753 8.040849 -4.670917 -2.866041 5.991039 7.607916 -15.215295 6.308475 16.494185 6.551218 14.538346 11.294956 -6.339212 -11.255242 65.401800 -29.739668 67.707932 -4.401477 -36.094657 41.096077 -52.237427 17.239447 31.740244 9.984732 -11.084173 -28.410834 -77.147813 48.543739 -79.047910 -5.727863 51.483309 -17.109779 -12.707904 37.893504 -15.885937 5.141229 -6.917696 -7.579224 2.015316 -5.253515 -2.620304 0.016448 5.948840 1.728148 0.093345 0.131328 -0.032371 7.329383 -6.537729 0.039327 -0.717321 -1.557550 -1.768794 -1.548411 2.327261 3.696519 0.159334 -0.139894 0.058035 
16.422106 6.222324 83.280891 -5.165620 -4.814215 -109.051613 -14.993614 -7.049758 18.764674 -6.309557 -3.743143 8.037713 -6.309551 -3.743143 8.037715 -4.682152 -2.891265 5.988212 7.634743 -15.156383 6.307248 16.554051 6.654299 14.556258 11.396119 -6.385764 -11.113411 65.425924 -29.801615 67.404794 -3.838154 -36.025747 40.408185 -51.857989 16.929539 31.372920 9.932496 -11.016040 -28.450287 -76.432651 48.456876 -78.226628 -4.967583 51.558571 -16.116506 -12.410547 38.011505 -16.105383 5.158573 -6.870642 -7.600984 2.024401 -5.230760 -2.635964 0.012030 5.936735 1.718031 0.087672 0.144958 -0.030795 7.357238 -6.496251 0.042977 -0.723776 -1.492825 -1.791780 -1.546157 2.290796 3.629813 0.141996 -0.127546 0.056159 
